G04 (created by PCBNEW (2013-may-18)-stable) date Tue Apr  7 22:42:00 2015*
%MOIN*%
G04 Gerber Fmt 3.4, Leading zero omitted, Abs format*
%FSLAX34Y34*%
G01*
G70*
G90*
G04 APERTURE LIST*
%ADD10C,0.00393701*%
%ADD11R,0.060748X0.040748*%
%ADD12R,0.040748X0.060748*%
%ADD13C,0.051148*%
%ADD14R,0.075748X0.095748*%
%ADD15R,0.070748X0.070748*%
%ADD16C,0.070748*%
%ADD17R,0.075748X0.075748*%
%ADD18C,0.075748*%
%ADD19R,0.095748X0.159748*%
%ADD20R,0.095748X0.055748*%
G04 APERTURE END LIST*
G54D10*
G54D11*
X83447Y-45341D03*
X83447Y-45941D03*
X82807Y-44591D03*
X82807Y-45191D03*
X83447Y-43841D03*
X83447Y-44441D03*
X82807Y-43081D03*
X82807Y-43681D03*
X84942Y-45206D03*
X84942Y-44606D03*
X87397Y-49051D03*
X87397Y-48451D03*
X84287Y-45941D03*
X84287Y-45341D03*
X84947Y-46701D03*
X84947Y-46101D03*
X84287Y-44441D03*
X84287Y-43841D03*
X84942Y-43706D03*
X84942Y-43106D03*
G54D12*
X80847Y-43951D03*
X81447Y-43951D03*
X80847Y-44651D03*
X81447Y-44651D03*
X80847Y-45351D03*
X81447Y-45351D03*
X80847Y-46051D03*
X81447Y-46051D03*
X80847Y-46751D03*
X81447Y-46751D03*
G54D11*
X87397Y-42051D03*
X87397Y-41451D03*
X87397Y-43801D03*
X87397Y-43201D03*
X87397Y-45551D03*
X87397Y-44951D03*
X87397Y-47301D03*
X87397Y-46701D03*
X82807Y-46091D03*
X82807Y-46691D03*
X87397Y-40301D03*
X87397Y-39701D03*
G54D12*
X80847Y-43251D03*
X81447Y-43251D03*
G54D13*
X61335Y-45134D03*
X61335Y-46866D03*
G54D14*
X81317Y-41901D03*
X80017Y-41901D03*
G54D11*
X89997Y-43801D03*
X89997Y-43201D03*
X66200Y-44250D03*
X66200Y-43650D03*
X89997Y-45551D03*
X89997Y-44951D03*
X89997Y-47301D03*
X89997Y-46701D03*
X89997Y-49051D03*
X89997Y-48451D03*
X88797Y-46701D03*
X88797Y-47301D03*
X88797Y-45001D03*
X88797Y-45601D03*
X88797Y-43201D03*
X88797Y-43801D03*
X88797Y-48451D03*
X88797Y-49051D03*
X88797Y-41451D03*
X88797Y-42051D03*
X88797Y-39701D03*
X88797Y-40301D03*
X89997Y-42051D03*
X89997Y-41451D03*
G54D15*
X82497Y-50001D03*
G54D16*
X81497Y-50001D03*
X80497Y-50001D03*
X79497Y-50001D03*
X78497Y-50001D03*
X77497Y-50001D03*
X76497Y-50001D03*
X75497Y-50001D03*
G54D15*
X82497Y-39001D03*
G54D16*
X81497Y-39001D03*
X80497Y-39001D03*
X79497Y-39001D03*
X78497Y-39001D03*
X77497Y-39001D03*
X76497Y-39001D03*
X75497Y-39001D03*
G54D15*
X92997Y-47001D03*
G54D16*
X92997Y-46001D03*
X92997Y-45001D03*
X92997Y-44001D03*
X92997Y-43001D03*
X92997Y-42001D03*
X92997Y-41001D03*
G54D15*
X87497Y-50001D03*
G54D16*
X86497Y-50001D03*
X85497Y-50001D03*
X84497Y-50001D03*
G54D15*
X85997Y-39001D03*
G54D16*
X84997Y-39001D03*
X83997Y-39001D03*
G54D15*
X62500Y-50000D03*
G54D16*
X63500Y-50000D03*
X64500Y-50000D03*
X65500Y-50000D03*
X66500Y-50000D03*
X67500Y-50000D03*
X68500Y-50000D03*
X69500Y-50000D03*
X70500Y-50000D03*
X71500Y-50000D03*
X72500Y-50000D03*
X73500Y-50000D03*
G54D15*
X62500Y-39000D03*
G54D16*
X63500Y-39000D03*
X64500Y-39000D03*
X65500Y-39000D03*
X66500Y-39000D03*
X67500Y-39000D03*
X68500Y-39000D03*
X69500Y-39000D03*
X70500Y-39000D03*
X71500Y-39000D03*
X72500Y-39000D03*
X73500Y-39000D03*
G54D17*
X73600Y-45300D03*
G54D18*
X72600Y-45300D03*
X73600Y-44300D03*
X72600Y-44300D03*
X73600Y-43300D03*
X72600Y-43300D03*
G54D19*
X70850Y-48000D03*
G54D20*
X73450Y-48000D03*
X73450Y-48900D03*
X73450Y-47100D03*
G54D11*
X74350Y-46500D03*
X74350Y-47100D03*
M02*
