G04 (created by PCBNEW (2013-may-18)-stable) date Tue Apr  7 22:42:00 2015*
%MOIN*%
G04 Gerber Fmt 3.4, Leading zero omitted, Abs format*
%FSLAX34Y34*%
G01*
G70*
G90*
G04 APERTURE LIST*
%ADD10C,0.00393701*%
%ADD11R,0.094448X0.133848*%
%ADD12R,0.040748X0.060748*%
%ADD13R,0.106348X0.035448*%
%ADD14R,0.114148X0.094448*%
%ADD15C,0.051148*%
%ADD16R,0.031748X0.075748*%
%ADD17R,0.075748X0.031748*%
%ADD18R,0.051748X0.051748*%
%ADD19R,0.095748X0.075748*%
%ADD20R,0.050748X0.070748*%
%ADD21R,0.060748X0.040748*%
%ADD22R,0.070748X0.070748*%
%ADD23C,0.070748*%
%ADD24R,0.032748X0.045748*%
%ADD25R,0.045748X0.032748*%
%ADD26R,0.075748X0.075748*%
%ADD27C,0.075748*%
%ADD28R,0.047148X0.047148*%
%ADD29R,0.0708661X0.0629921*%
%ADD30R,0.085748X0.059248*%
%ADD31R,0.075748X0.025548*%
%ADD32O,0.075748X0.025548*%
%ADD33O,0.025548X0.075748*%
%ADD34R,0.216535X0.216535*%
G04 APERTURE END LIST*
G54D10*
G54D11*
X89928Y-46701D03*
X87566Y-46701D03*
X89928Y-44951D03*
X87566Y-44951D03*
X89928Y-43201D03*
X87566Y-43201D03*
X89928Y-41451D03*
X87566Y-41451D03*
X89928Y-39701D03*
X87566Y-39701D03*
X89928Y-48451D03*
X87566Y-48451D03*
G54D12*
X82817Y-41511D03*
X83417Y-41511D03*
X83417Y-42211D03*
X82817Y-42211D03*
G54D13*
X62358Y-45370D03*
X62358Y-45685D03*
X62358Y-46000D03*
X62358Y-46315D03*
X62358Y-46630D03*
G54D14*
X62319Y-44248D03*
X60154Y-44248D03*
X62319Y-47752D03*
X60154Y-47752D03*
G54D15*
X61335Y-45134D03*
X61335Y-46866D03*
G54D16*
X68500Y-41750D03*
X68185Y-41750D03*
X67870Y-41750D03*
X67555Y-41750D03*
X67240Y-41750D03*
X66925Y-41750D03*
X68815Y-41750D03*
X69130Y-41750D03*
X69445Y-41750D03*
X69760Y-41750D03*
X70075Y-41750D03*
X68500Y-46250D03*
X68185Y-46250D03*
X67870Y-46250D03*
X67555Y-46250D03*
X67240Y-46250D03*
X66925Y-46250D03*
X68815Y-46250D03*
X69130Y-46250D03*
X69445Y-46250D03*
X69760Y-46250D03*
X70075Y-46250D03*
G54D17*
X66250Y-44000D03*
X70750Y-44000D03*
X66250Y-44315D03*
X70750Y-44315D03*
X70750Y-44630D03*
X66250Y-44630D03*
X66250Y-44945D03*
X70750Y-44945D03*
X70750Y-45260D03*
X66250Y-45260D03*
X66250Y-45575D03*
X70750Y-45575D03*
X70750Y-43685D03*
X66250Y-43685D03*
X66250Y-43370D03*
X70750Y-43370D03*
X70750Y-43055D03*
X66250Y-43055D03*
X66250Y-42740D03*
X70750Y-42740D03*
X70750Y-42425D03*
X66250Y-42425D03*
G54D18*
X85047Y-42251D03*
X84347Y-42251D03*
X84697Y-41451D03*
X86047Y-43201D03*
X85347Y-43201D03*
X85697Y-42401D03*
X85047Y-44151D03*
X84347Y-44151D03*
X84697Y-43351D03*
X86047Y-45101D03*
X85347Y-45101D03*
X85697Y-44301D03*
X85047Y-46051D03*
X84347Y-46051D03*
X84697Y-45251D03*
X86047Y-47001D03*
X85347Y-47001D03*
X85697Y-46201D03*
G54D19*
X73850Y-46650D03*
X73850Y-47950D03*
G54D20*
X91672Y-45501D03*
X90922Y-45501D03*
X91672Y-43751D03*
X90922Y-43751D03*
X91672Y-47201D03*
X90922Y-47201D03*
X91672Y-42001D03*
X90922Y-42001D03*
X91672Y-40201D03*
X90922Y-40201D03*
X92772Y-39301D03*
X92022Y-39301D03*
X92722Y-48551D03*
X91972Y-48551D03*
X63425Y-44800D03*
X64175Y-44800D03*
X76882Y-41941D03*
X76132Y-41941D03*
X81342Y-42021D03*
X82092Y-42021D03*
X75285Y-47290D03*
X76035Y-47290D03*
G54D21*
X71000Y-41900D03*
X71000Y-41300D03*
G54D12*
X63500Y-46300D03*
X64100Y-46300D03*
X67550Y-40750D03*
X66950Y-40750D03*
G54D21*
X65450Y-44550D03*
X65450Y-43950D03*
G54D12*
X67400Y-47000D03*
X66800Y-47000D03*
X61500Y-40200D03*
X60900Y-40200D03*
X64400Y-47850D03*
X65000Y-47850D03*
G54D21*
X67100Y-48300D03*
X67100Y-47700D03*
X69500Y-47700D03*
X69500Y-48300D03*
G54D12*
X68700Y-47000D03*
X68100Y-47000D03*
X80837Y-46751D03*
X81437Y-46751D03*
X81547Y-41311D03*
X82147Y-41311D03*
X75260Y-47990D03*
X75860Y-47990D03*
G54D21*
X75327Y-46091D03*
X75327Y-46691D03*
G54D22*
X82497Y-50001D03*
G54D23*
X81497Y-50001D03*
X80497Y-50001D03*
X79497Y-50001D03*
X78497Y-50001D03*
X77497Y-50001D03*
X76497Y-50001D03*
X75497Y-50001D03*
G54D22*
X82497Y-39001D03*
G54D23*
X81497Y-39001D03*
X80497Y-39001D03*
X79497Y-39001D03*
X78497Y-39001D03*
X77497Y-39001D03*
X76497Y-39001D03*
X75497Y-39001D03*
G54D22*
X92997Y-47001D03*
G54D23*
X92997Y-46001D03*
X92997Y-45001D03*
X92997Y-44001D03*
X92997Y-43001D03*
X92997Y-42001D03*
X92997Y-41001D03*
G54D22*
X87497Y-50001D03*
G54D23*
X86497Y-50001D03*
X85497Y-50001D03*
X84497Y-50001D03*
G54D22*
X85997Y-39001D03*
G54D23*
X84997Y-39001D03*
X83997Y-39001D03*
G54D22*
X62500Y-50000D03*
G54D23*
X63500Y-50000D03*
X64500Y-50000D03*
X65500Y-50000D03*
X66500Y-50000D03*
X67500Y-50000D03*
X68500Y-50000D03*
X69500Y-50000D03*
X70500Y-50000D03*
X71500Y-50000D03*
X72500Y-50000D03*
X73500Y-50000D03*
G54D22*
X62500Y-39000D03*
G54D23*
X63500Y-39000D03*
X64500Y-39000D03*
X65500Y-39000D03*
X66500Y-39000D03*
X67500Y-39000D03*
X68500Y-39000D03*
X69500Y-39000D03*
X70500Y-39000D03*
X71500Y-39000D03*
X72500Y-39000D03*
X73500Y-39000D03*
G54D24*
X79360Y-48416D03*
X79360Y-47816D03*
X79674Y-48416D03*
X79674Y-47816D03*
X79045Y-48416D03*
X79989Y-48416D03*
X79989Y-47816D03*
X79045Y-47816D03*
X77920Y-48411D03*
X77920Y-47811D03*
X78234Y-48411D03*
X78234Y-47811D03*
X77605Y-48411D03*
X78549Y-48411D03*
X78549Y-47811D03*
X77605Y-47811D03*
G54D25*
X75347Y-43743D03*
X74747Y-43743D03*
X75347Y-43429D03*
X74747Y-43429D03*
X75347Y-44058D03*
X75347Y-43114D03*
X74747Y-43114D03*
X74747Y-44058D03*
X75347Y-45193D03*
X74747Y-45193D03*
X75347Y-44879D03*
X74747Y-44879D03*
X75347Y-45508D03*
X75347Y-44564D03*
X74747Y-44564D03*
X74747Y-45508D03*
X83427Y-43548D03*
X82827Y-43548D03*
X83427Y-43234D03*
X82827Y-43234D03*
X83427Y-43863D03*
X83427Y-42919D03*
X82827Y-42919D03*
X82827Y-43863D03*
X83427Y-45048D03*
X82827Y-45048D03*
X83427Y-44734D03*
X82827Y-44734D03*
X83427Y-45363D03*
X83427Y-44419D03*
X82827Y-44419D03*
X82827Y-45363D03*
X83427Y-46548D03*
X82827Y-46548D03*
X83427Y-46234D03*
X82827Y-46234D03*
X83427Y-46863D03*
X83427Y-45919D03*
X82827Y-45919D03*
X82827Y-46863D03*
G54D26*
X73600Y-45300D03*
G54D27*
X72600Y-45300D03*
X73600Y-44300D03*
X72600Y-44300D03*
X73600Y-43300D03*
X72600Y-43300D03*
G54D28*
X63895Y-47850D03*
X63305Y-47850D03*
G54D29*
X68733Y-47685D03*
X67866Y-47685D03*
X68733Y-48314D03*
X67866Y-48314D03*
G54D12*
X63500Y-45600D03*
X64100Y-45600D03*
G54D30*
X59975Y-41172D03*
X59975Y-42627D03*
X62425Y-41172D03*
X62425Y-42627D03*
G54D19*
X72800Y-46650D03*
X72800Y-47950D03*
G54D31*
X81308Y-45977D03*
G54D32*
X81308Y-45780D03*
X81308Y-45583D03*
X81308Y-45386D03*
X81308Y-45189D03*
X81308Y-44993D03*
X81308Y-44796D03*
X81308Y-44599D03*
X81308Y-44402D03*
X81308Y-44205D03*
X81308Y-44008D03*
X81308Y-43812D03*
X81308Y-43615D03*
X81308Y-43418D03*
X81308Y-43221D03*
X81308Y-43024D03*
G54D33*
X80473Y-42126D03*
X80276Y-42126D03*
X80079Y-42126D03*
X79882Y-42126D03*
X79685Y-42126D03*
X79489Y-42126D03*
X79292Y-42126D03*
X79095Y-42126D03*
X78898Y-42126D03*
X78701Y-42126D03*
X78504Y-42126D03*
X78308Y-42126D03*
X78111Y-42126D03*
X77914Y-42126D03*
X77717Y-42126D03*
X77520Y-42126D03*
G54D32*
X76622Y-43024D03*
X76622Y-43221D03*
X76622Y-43418D03*
X76622Y-43615D03*
X76622Y-43812D03*
X76622Y-44008D03*
X76622Y-44205D03*
X76622Y-44402D03*
X76622Y-44599D03*
X76622Y-44796D03*
X76622Y-44993D03*
X76622Y-45189D03*
X76622Y-45386D03*
X76622Y-45583D03*
X76622Y-45780D03*
X76622Y-45977D03*
G54D33*
X77520Y-46812D03*
X77717Y-46812D03*
X78111Y-46812D03*
X77914Y-46819D03*
X78308Y-46812D03*
X78504Y-46812D03*
X78701Y-46812D03*
X78898Y-46812D03*
X79095Y-46812D03*
X79292Y-46812D03*
X79486Y-46812D03*
X79683Y-46812D03*
X79880Y-46812D03*
X80077Y-46812D03*
X80273Y-46812D03*
X80470Y-46812D03*
G54D34*
X78997Y-44501D03*
M02*
