M48
INCH,TZ
T1C0.013
T2C0.020
T3C0.032
T4C0.040
%
G90
G05
T1
X63300Y-41150
X64200Y-44200
X64600Y-46050
X65650Y-43100
X66475Y-41800
X66850Y-44000
X66850Y-44350
X66850Y-44650
X66850Y-45000
X66850Y-45350
X67150Y-43400
X67480Y-43540
X68000Y-43150
X69200Y-47100
X69550Y-47150
X70060Y-44740
X70800Y-46350
X71350Y-44950
X71350Y-45650
X71350Y-46650
X71650Y-44850
X71750Y-45950
X72020Y-44800
X72040Y-46240
X72360Y-47300
X74050Y-43750
X74370Y-48640
X75800Y-46400
X75990Y-50510
X76060Y-48750
X76260Y-46730
X76310Y-46280
X76640Y-46480
X77100Y-46750
X77900Y-43400
X80050Y-43350
X80940Y-47270
X81090Y-41160
X81237Y-40521
X81307Y-42571
X81520Y-47950
X81617Y-40481
X81937Y-42961
X81950Y-47000
X82387Y-46231
X82387Y-46861
X82389Y-43863
X82389Y-45363
X82390Y-43234
X82390Y-44734
X83867Y-44741
X83867Y-45051
X83867Y-45921
X83997Y-47151
X85647Y-41451
X86797Y-45351
X90897Y-44501
X90947Y-39301
X91197Y-48551
T2
X83864Y-46548
X83867Y-43231
X83867Y-43551
X83867Y-43861
X83867Y-44421
X83867Y-45361
X83907Y-46231
X86097Y-47751
X86297Y-46051
X86447Y-44001
X86497Y-42451
X90897Y-40951
X90897Y-42751
X90897Y-46251
X90897Y-47951
T3
X62500Y-39000
X62500Y-50000
X63500Y-39000
X63500Y-50000
X64500Y-39000
X64500Y-50000
X65500Y-39000
X65500Y-50000
X66500Y-39000
X66500Y-50000
X67500Y-39000
X67500Y-50000
X68500Y-39000
X68500Y-50000
X69500Y-39000
X69500Y-50000
X70500Y-39000
X70500Y-50000
X71500Y-39000
X71500Y-50000
X72500Y-39000
X72500Y-50000
X73500Y-39000
X73500Y-50000
X75497Y-39001
X75497Y-50001
X76497Y-39001
X76497Y-50001
X77497Y-39001
X77497Y-50001
X78497Y-39001
X78497Y-50001
X79497Y-39001
X79497Y-50001
X80497Y-39001
X80497Y-50001
X81497Y-39001
X81497Y-50001
X82497Y-39001
X82497Y-50001
X83997Y-39001
X84497Y-50001
X84997Y-39001
X85497Y-50001
X85997Y-39001
X86497Y-50001
X87497Y-50001
X92997Y-41001
X92997Y-42001
X92997Y-43001
X92997Y-44001
X92997Y-45001
X92997Y-46001
X92997Y-47001
T4
X72600Y-43300
X72600Y-44300
X72600Y-45300
X73600Y-43300
X73600Y-44300
X73600Y-45300
T0
M30
